ERROR while calling tool: File already exists. You must use an edit tool to modify it.<svg width="80" height="92" viewBox="0 0 80 92" fill="none" xmlns="http://www.w3.org/2000/svg">

Please check your input and try again.<path d="M79.527 7.64775L66.399 0.06675C66.245 -0.02225 66.053 -0.02225 65.899 0.06675L0.25 37.9688C0.096 38.0578 0 38.2228 0 38.4018V53.5618C0 53.7408 0.096 53.9058 0.25 53.9948L65.899 91.8968C65.976 91.9418 66.063 91.9638 66.149 91.9638C66.235 91.9638 66.322 91.9418 66.399 91.8968L79.527 84.3158C79.681 84.2268 79.777 84.0618 79.777 83.8828V8.08075C79.777 7.90275 79.682 7.73775 79.527 7.64775ZM52.519 39.2687V52.6958L40.889 45.9837L52.519 39.2687ZM26.636 38.1858C26.615 38.1978 26.613 38.2208 26.597 38.2368C26.58 38.2528 26.556 38.2568 26.544 38.2768C26.538 38.2878 26.544 38.2998 26.539 38.3108C26.527 38.3408 26.528 38.3688 26.527 38.4018C26.528 38.4348 26.527 38.4628 26.539 38.4928C26.544 38.5038 26.538 38.5158 26.544 38.5268C26.566 38.5648 26.598 38.5937 26.634 38.6147L26.636 38.6178L26.638 38.6188L39.389 45.9818C39.389 46.1608 39.485 46.3258 39.639 46.4148L52.769 53.9928V68.2878L1.25 38.5468L66.149 1.07675L78.527 8.22575L26.636 38.1858ZM53.269 83.4498V68.7227V53.9938C53.423 53.9048 53.519 53.7398 53.519 53.5608V38.4028L65.9 31.2568V90.7418L53.269 83.4498Z" fill="#FF6C3C"/>
</svg>